solid OpenSCAD_Model
  facet normal 0.948683 0.316228 0
    outer loop
      vertex 4.75732 -8.02979 15
      vertex 1.77091 0.929446 0
      vertex 1.77091 0.929446 15
    endloop
  endfacet
  facet normal 0.948683 0.316228 0
    outer loop
      vertex 1.77091 0.929446 0
      vertex 4.75732 -8.02979 15
      vertex 4.75732 -8.02979 0
    endloop
  endfacet
  facet normal -1 0 0
    outer loop
      vertex -1.94188 -14.4786 0
      vertex -1.94188 -13.5901 15
      vertex -1.94188 -13.5901 0
    endloop
  endfacet
  facet normal -1 -0 0
    outer loop
      vertex -1.94188 -13.5901 15
      vertex -1.94188 -14.4786 0
      vertex -1.94188 -14.4786 15
    endloop
  endfacet
  facet normal -1 0 0
    outer loop
      vertex -1.94188 -12.4099 0
      vertex -1.94188 0.478631 15
      vertex -1.94188 0.478631 0
    endloop
  endfacet
  facet normal -1 -0 0
    outer loop
      vertex -1.94188 0.478631 15
      vertex -1.94188 -12.4099 0
      vertex -1.94188 -12.4099 15
    endloop
  endfacet
  facet normal -0.885456 0.464723 0
    outer loop
      vertex -1.94188 0.478631 0
      vertex -1.49702 1.32625 15
      vertex -1.49702 1.32625 0
    endloop
  endfacet
  facet normal -0.885456 0.464723 0
    outer loop
      vertex -1.49702 1.32625 15
      vertex -1.94188 0.478631 0
      vertex -1.94188 0.478631 15
    endloop
  endfacet
  facet normal -0.120537 0.992709 0
    outer loop
      vertex 0.241073 1.98542 0
      vertex -0.709209 1.87003 15
      vertex 0.241073 1.98542 15
    endloop
  endfacet
  facet normal -0.120537 0.992709 0
    outer loop
      vertex -0.709209 1.87003 15
      vertex 0.241073 1.98542 0
      vertex -0.709209 1.87003 0
    endloop
  endfacet
  facet normal 0 0 1
    outer loop
      vertex 1.5 -13 15
      vertex -2 -13 15
      vertex -1.94188 -13.5901 15
    endloop
  endfacet
  facet normal -0 0 1
    outer loop
      vertex 116.3 -14 15
      vertex 121 -38 15
      vertex 121 -10 15
    endloop
  endfacet
  facet normal 0 0 1
    outer loop
      vertex 121 -38 15
      vertex 116.3 -34.339 15
      vertex 117.823 -38 15
    endloop
  endfacet
  facet normal 0 0 1
    outer loop
      vertex 117.823 -38 15
      vertex 116.3 -34.339 15
      vertex 117.367 -38.8426 15
    endloop
  endfacet
  facet normal 0 0 1
    outer loop
      vertex 121 -38 15
      vertex 116.3 -14 15
      vertex 116.3 -34.339 15
    endloop
  endfacet
  facet normal 0 0 1
    outer loop
      vertex 121 -10 15
      vertex 96 -14 15
      vertex 116.3 -14 15
    endloop
  endfacet
  facet normal -0 0 1
    outer loop
      vertex 94 -34 15
      vertex 96 -34.2007 15
      vertex 96 -14 15
    endloop
  endfacet
  facet normal 0 -0 1
    outer loop
      vertex 94.0732 -37.588 15
      vertex 96 -34.2007 15
      vertex 94 -34 15
    endloop
  endfacet
  facet normal 0 0 1
    outer loop
      vertex 96 -34.2007 15
      vertex 94.0732 -37.588 15
      vertex 95.7949 -39.7473 15
    endloop
  endfacet
  facet normal 0 0 1
    outer loop
      vertex 95.7949 -39.7473 15
      vertex 94.0732 -37.588 15
      vertex 94.9682 -39.2072 15
    endloop
  endfacet
  facet normal 0 0 1
    outer loop
      vertex 94 -34 15
      vertex 96 -14 15
      vertex 94 -14 15
    endloop
  endfacet
  facet normal 0 0 1
    outer loop
      vertex 121 -10 15
      vertex 94 -14 15
      vertex 96 -14 15
    endloop
  endfacet
  facet normal 0 0 1
    outer loop
      vertex 4.75732 -8.02979 15
      vertex 94 -14 15
      vertex 121 -10 15
    endloop
  endfacet
  facet normal 0 0 1
    outer loop
      vertex 4.75732 -8.02979 15
      vertex 3.46352 -11.5734 15
      vertex 94 -14 15
    endloop
  endfacet
  facet normal 0 0 1
    outer loop
      vertex 4.75732 -8.02979 15
      vertex 2.53647 -11.5734 15
      vertex 3.46352 -11.5734 15
    endloop
  endfacet
  facet normal 0 0 1
    outer loop
      vertex -1.94188 -12.4099 15
      vertex 2.53647 -11.5734 15
      vertex 4.75732 -8.02979 15
    endloop
  endfacet
  facet normal -0 0 1
    outer loop
      vertex -1.94188 0.478631 15
      vertex 4.75732 -8.02979 15
      vertex 1.77091 0.929446 15
    endloop
  endfacet
  facet normal 0 0 1
    outer loop
      vertex -1.94188 -12.4099 15
      vertex 4.75732 -8.02979 15
      vertex -1.94188 0.478631 15
    endloop
  endfacet
  facet normal 0 0 1
    outer loop
      vertex -1.94188 0.478631 15
      vertex 1.77091 0.929446 15
      vertex 1.13613 1.64597 15
    endloop
  endfacet
  facet normal 0 0 1
    outer loop
      vertex 117.367 -38.8426 15
      vertex 116.3 -34.339 15
      vertex 116.641 -39.5115 15
    endloop
  endfacet
  facet normal 0 0 1
    outer loop
      vertex 114.752 -34.0102 15
      vertex 116.3 -34.339 15
      vertex 115.736 -34.0918 15
    endloop
  endfacet
  facet normal 0 0 1
    outer loop
      vertex 116.3 -34.339 15
      vertex 115.736 -39.9082 15
      vertex 116.641 -39.5115 15
    endloop
  endfacet
  facet normal -0 0 1
    outer loop
      vertex 113.795 -34.2527 15
      vertex 116.3 -34.339 15
      vertex 114.752 -34.0102 15
    endloop
  endfacet
  facet normal 0 0 1
    outer loop
      vertex 116.3 -34.339 15
      vertex 114.752 -39.9898 15
      vertex 115.736 -39.9082 15
    endloop
  endfacet
  facet normal 0 0 1
    outer loop
      vertex 112.968 -34.7928 15
      vertex 116.3 -34.339 15
      vertex 113.795 -34.2527 15
    endloop
  endfacet
  facet normal 0 0 1
    outer loop
      vertex 116.3 -34.339 15
      vertex 113.795 -39.7473 15
      vertex 114.752 -39.9898 15
    endloop
  endfacet
  facet normal 0 0 1
    outer loop
      vertex 116.3 -34.339 15
      vertex 112.968 -34.7928 15
      vertex 113.795 -39.7473 15
    endloop
  endfacet
  facet normal 0 0 1
    outer loop
      vertex 112.968 -34.7928 15
      vertex 112.968 -39.2072 15
      vertex 113.795 -39.7473 15
    endloop
  endfacet
  facet normal -0 0 1
    outer loop
      vertex 112.362 -35.5722 15
      vertex 112.968 -39.2072 15
      vertex 112.968 -34.7928 15
    endloop
  endfacet
  facet normal 0 0 1
    outer loop
      vertex 112.362 -35.5722 15
      vertex 112.362 -38.4278 15
      vertex 112.968 -39.2072 15
    endloop
  endfacet
  facet normal -0 0 1
    outer loop
      vertex 112.041 -36.5062 15
      vertex 112.362 -38.4278 15
      vertex 112.362 -35.5722 15
    endloop
  endfacet
  facet normal 0 0 1
    outer loop
      vertex 112.362 -38.4278 15
      vertex 112.041 -36.5062 15
      vertex 112.041 -37.4938 15
    endloop
  endfacet
  facet normal 0 0 1
    outer loop
      vertex 99.8374 -36.0259 15
      vertex 99.8374 -37.9741 15
      vertex 100 -37 15
    endloop
  endfacet
  facet normal 0 0 1
    outer loop
      vertex 99.3674 -35.1574 15
      vertex 99.8374 -37.9741 15
      vertex 99.8374 -36.0259 15
    endloop
  endfacet
  facet normal 0 0 1
    outer loop
      vertex 99.3674 -35.1574 15
      vertex 99.3674 -38.8426 15
      vertex 99.8374 -37.9741 15
    endloop
  endfacet
  facet normal 0 0 1
    outer loop
      vertex 98.6408 -34.4885 15
      vertex 99.3674 -38.8426 15
      vertex 99.3674 -35.1574 15
    endloop
  endfacet
  facet normal 0 0 1
    outer loop
      vertex 98.6408 -34.4885 15
      vertex 98.6408 -39.5115 15
      vertex 99.3674 -38.8426 15
    endloop
  endfacet
  facet normal -0 0 1
    outer loop
      vertex 96 -34.2007 15
      vertex 98.6408 -34.4885 15
      vertex 97.7365 -34.0918 15
    endloop
  endfacet
  facet normal 0 0 1
    outer loop
      vertex 98.6408 -34.4885 15
      vertex 96 -34.2007 15
      vertex 98.6408 -39.5115 15
    endloop
  endfacet
  facet normal 0 0 1
    outer loop
      vertex 96 -34.2007 15
      vertex 97.7365 -34.0918 15
      vertex 96.7523 -34.0102 15
    endloop
  endfacet
  facet normal 0 0 1
    outer loop
      vertex 98.6408 -39.5115 15
      vertex 96 -34.2007 15
      vertex 97.7365 -39.9082 15
    endloop
  endfacet
  facet normal 0 0 1
    outer loop
      vertex 97.7365 -39.9082 15
      vertex 96 -34.2007 15
      vertex 96.7523 -39.9898 15
    endloop
  endfacet
  facet normal 0 0 1
    outer loop
      vertex 96.7523 -39.9898 15
      vertex 96 -34.2007 15
      vertex 95.7949 -39.7473 15
    endloop
  endfacet
  facet normal 0 0 1
    outer loop
      vertex 94.9682 -39.2072 15
      vertex 94.0732 -37.588 15
      vertex 94.3616 -38.4278 15
    endloop
  endfacet
  facet normal -0 0 1
    outer loop
      vertex 92 -34 15
      vertex 94.0732 -37.588 15
      vertex 94 -34 15
    endloop
  endfacet
  facet normal -0 0 1
    outer loop
      vertex 2.02455 -17.9039 15
      vertex 92 -34 15
      vertex 2.53647 -14.4266 15
    endloop
  endfacet
  facet normal 0 0 1
    outer loop
      vertex 92 -34 15
      vertex 2.02455 -17.9039 15
      vertex 94.0732 -37.588 15
    endloop
  endfacet
  facet normal 0 0 1
    outer loop
      vertex 0.222148 -17.1573 15
      vertex 2.53647 -14.4266 15
      vertex 1.78647 -13.8817 15
    endloop
  endfacet
  facet normal 0 0 1
    outer loop
      vertex -1.34127 -15.4338 15
      vertex 1.78647 -13.8817 15
      vertex 1.5 -13 15
    endloop
  endfacet
  facet normal 0 0 1
    outer loop
      vertex 2.53647 -14.4266 15
      vertex 1.08658 -17.6194 15
      vertex 2.02455 -17.9039 15
    endloop
  endfacet
  facet normal 0 0 1
    outer loop
      vertex 2.53647 -11.5734 15
      vertex -1.94188 -12.4099 15
      vertex 1.78647 -12.1183 15
    endloop
  endfacet
  facet normal 0 0 1
    outer loop
      vertex -1.94188 0.478631 15
      vertex 1.13613 1.64597 15
      vertex 0.241073 1.98542 15
    endloop
  endfacet
  facet normal 0 0 1
    outer loop
      vertex -2 -13 15
      vertex 1.5 -13 15
      vertex -1.94188 -12.4099 15
    endloop
  endfacet
  facet normal 0 0 1
    outer loop
      vertex 1.78647 -13.8817 15
      vertex -1.34127 -15.4338 15
      vertex -1.15735 -15.7779 15
    endloop
  endfacet
  facet normal 0 0 1
    outer loop
      vertex -1.94188 0.478631 15
      vertex 0.241073 1.98542 15
      vertex -0.709209 1.87003 15
    endloop
  endfacet
  facet normal 0 0 1
    outer loop
      vertex 2.53647 -14.4266 15
      vertex 0.222148 -17.1573 15
      vertex 1.08658 -17.6194 15
    endloop
  endfacet
  facet normal 0 0 1
    outer loop
      vertex 1.78647 -13.8817 15
      vertex -0.535534 -16.5355 15
      vertex 0.222148 -17.1573 15
    endloop
  endfacet
  facet normal 0 0 1
    outer loop
      vertex -1.94188 0.478631 15
      vertex -0.709209 1.87003 15
      vertex -1.49702 1.32625 15
    endloop
  endfacet
  facet normal 0 0 1
    outer loop
      vertex 1.78647 -13.8817 15
      vertex -1.15735 -15.7779 15
      vertex -0.535534 -16.5355 15
    endloop
  endfacet
  facet normal 0 0 1
    outer loop
      vertex 1.78647 -12.1183 15
      vertex -1.94188 -12.4099 15
      vertex 1.5 -13 15
    endloop
  endfacet
  facet normal 0 0 1
    outer loop
      vertex 1.5 -13 15
      vertex -1.94188 -13.5901 15
      vertex -1.34127 -15.4338 15
    endloop
  endfacet
  facet normal -0 0 1
    outer loop
      vertex -1.94188 -14.4786 15
      vertex -1.34127 -15.4338 15
      vertex -1.94188 -13.5901 15
    endloop
  endfacet
  facet normal 0 0 1
    outer loop
      vertex -1.34127 -15.4338 15
      vertex -1.94188 -14.4786 15
      vertex -1.49702 -15.3262 15
    endloop
  endfacet
  facet normal -0.568065 0.822984 0
    outer loop
      vertex -0.709209 1.87003 0
      vertex -1.49702 1.32625 15
      vertex -0.709209 1.87003 15
    endloop
  endfacet
  facet normal -0.568065 0.822984 0
    outer loop
      vertex -1.49702 1.32625 15
      vertex -0.709209 1.87003 0
      vertex -1.49702 1.32625 0
    endloop
  endfacet
  facet normal 0.748511 0.663122 0
    outer loop
      vertex 1.77091 0.929446 15
      vertex 1.13613 1.64597 0
      vertex 1.13613 1.64597 15
    endloop
  endfacet
  facet normal 0.748511 0.663122 0
    outer loop
      vertex 1.13613 1.64597 0
      vertex 1.77091 0.929446 15
      vertex 1.77091 0.929446 0
    endloop
  endfacet
  facet normal 0 0 -1
    outer loop
      vertex 99.8374 -37.9741 0
      vertex 99.8374 -36.0259 0
      vertex 100 -37 0
    endloop
  endfacet
  facet normal 0 0 -1
    outer loop
      vertex 99.3674 -38.8426 0
      vertex 99.8374 -36.0259 0
      vertex 99.8374 -37.9741 0
    endloop
  endfacet
  facet normal 0 0 -1
    outer loop
      vertex 99.3674 -38.8426 0
      vertex 99.3674 -35.1574 0
      vertex 99.8374 -36.0259 0
    endloop
  endfacet
  facet normal 0 0 -1
    outer loop
      vertex 98.6408 -39.5115 0
      vertex 99.3674 -35.1574 0
      vertex 99.3674 -38.8426 0
    endloop
  endfacet
  facet normal 0 0 -1
    outer loop
      vertex 98.6408 -39.5115 0
      vertex 98.6408 -34.4885 0
      vertex 99.3674 -35.1574 0
    endloop
  endfacet
  facet normal 0 0 -1
    outer loop
      vertex 97.7365 -39.9082 0
      vertex 98.6408 -34.4885 0
      vertex 98.6408 -39.5115 0
    endloop
  endfacet
  facet normal 0 0 -1
    outer loop
      vertex 96 -34.2007 0
      vertex 98.6408 -34.4885 0
      vertex 97.7365 -39.9082 0
    endloop
  endfacet
  facet normal 0 0 -1
    outer loop
      vertex 96 -34.2007 0
      vertex 97.7365 -39.9082 0
      vertex 96.7523 -39.9898 0
    endloop
  endfacet
  facet normal 0 0 -1
    outer loop
      vertex 98.6408 -34.4885 0
      vertex 96 -34.2007 0
      vertex 97.7365 -34.0918 0
    endloop
  endfacet
  facet normal -0 0 -1
    outer loop
      vertex 97.7365 -34.0918 0
      vertex 96 -34.2007 0
      vertex 96.7523 -34.0102 0
    endloop
  endfacet
  facet normal 0 0 -1
    outer loop
      vertex 94.0732 -37.588 0
      vertex 96 -34.2007 0
      vertex 95.7949 -39.7473 0
    endloop
  endfacet
  facet normal 0 0 -1
    outer loop
      vertex 95.7949 -39.7473 0
      vertex 96 -34.2007 0
      vertex 96.7523 -39.9898 0
    endloop
  endfacet
  facet normal 0 0 -1
    outer loop
      vertex 115.736 -39.9082 0
      vertex 116.3 -34.339 0
      vertex 116.641 -39.5115 0
    endloop
  endfacet
  facet normal 0 0 -1
    outer loop
      vertex 114.752 -39.9898 0
      vertex 116.3 -34.339 0
      vertex 115.736 -39.9082 0
    endloop
  endfacet
  facet normal 0 0 -1
    outer loop
      vertex 113.795 -39.7473 0
      vertex 116.3 -34.339 0
      vertex 114.752 -39.9898 0
    endloop
  endfacet
  facet normal 0 0 -1
    outer loop
      vertex 116.3 -34.339 0
      vertex 114.752 -34.0102 0
      vertex 115.736 -34.0918 0
    endloop
  endfacet
  facet normal 0 0 -1
    outer loop
      vertex 112.968 -39.2072 0
      vertex 116.3 -34.339 0
      vertex 113.795 -39.7473 0
    endloop
  endfacet
  facet normal 0 0 -1
    outer loop
      vertex 116.3 -34.339 0
      vertex 113.795 -34.2527 0
      vertex 114.752 -34.0102 0
    endloop
  endfacet
  facet normal 0 0 -1
    outer loop
      vertex 112.968 -34.7928 0
      vertex 116.3 -34.339 0
      vertex 112.968 -39.2072 0
    endloop
  endfacet
  facet normal -0 0 -1
    outer loop
      vertex 116.3 -34.339 0
      vertex 112.968 -34.7928 0
      vertex 113.795 -34.2527 0
    endloop
  endfacet
  facet normal 0 0 -1
    outer loop
      vertex 112.362 -38.4278 0
      vertex 112.968 -34.7928 0
      vertex 112.968 -39.2072 0
    endloop
  endfacet
  facet normal 0 0 -1
    outer loop
      vertex 112.362 -38.4278 0
      vertex 112.362 -35.5722 0
      vertex 112.968 -34.7928 0
    endloop
  endfacet
  facet normal 0 0 -1
    outer loop
      vertex 112.041 -37.4938 0
      vertex 112.362 -35.5722 0
      vertex 112.362 -38.4278 0
    endloop
  endfacet
  facet normal 0 0 -1
    outer loop
      vertex 112.362 -35.5722 0
      vertex 112.041 -37.4938 0
      vertex 112.041 -36.5062 0
    endloop
  endfacet
  facet normal 0 0 -1
    outer loop
      vertex 116.3 -34.339 0
      vertex 121 -38 0
      vertex 117.823 -38 0
    endloop
  endfacet
  facet normal 0 0 -1
    outer loop
      vertex 116.3 -34.339 0
      vertex 117.823 -38 0
      vertex 117.367 -38.8426 0
    endloop
  endfacet
  facet normal 0 0 -1
    outer loop
      vertex 116.3 -34.339 0
      vertex 117.367 -38.8426 0
      vertex 116.641 -39.5115 0
    endloop
  endfacet
  facet normal 0 0 -1
    outer loop
      vertex 116.3 -14 0
      vertex 121 -38 0
      vertex 116.3 -34.339 0
    endloop
  endfacet
  facet normal 0 0 -1
    outer loop
      vertex 121 -38 0
      vertex 116.3 -14 0
      vertex 121 -10 0
    endloop
  endfacet
  facet normal 0 0 -1
    outer loop
      vertex 96 -14 0
      vertex 121 -10 0
      vertex 116.3 -14 0
    endloop
  endfacet
  facet normal 0 0 -1
    outer loop
      vertex 94.0732 -37.588 0
      vertex 95.7949 -39.7473 0
      vertex 94.9682 -39.2072 0
    endloop
  endfacet
  facet normal 0 0 -1
    outer loop
      vertex 94.0732 -37.588 0
      vertex 94.9682 -39.2072 0
      vertex 94.3616 -38.4278 0
    endloop
  endfacet
  facet normal -0 0 -1
    outer loop
      vertex 96 -34.2007 0
      vertex 94.0732 -37.588 0
      vertex 96 -14 0
    endloop
  endfacet
  facet normal 0 0 -1
    outer loop
      vertex 96 -14 0
      vertex 4.75732 -8.02979 0
      vertex 121 -10 0
    endloop
  endfacet
  facet normal 0 0 -1
    outer loop
      vertex 94.0732 -37.588 0
      vertex 4.75732 -8.02979 0
      vertex 96 -14 0
    endloop
  endfacet
  facet normal 0 0 -1
    outer loop
      vertex 2.02455 -17.9039 0
      vertex 4.75732 -8.02979 0
      vertex 94.0732 -37.588 0
    endloop
  endfacet
  facet normal 0 0 -1
    outer loop
      vertex -1.94188 -12.4099 0
      vertex 4.75732 -8.02979 0
      vertex 2.02455 -17.9039 0
    endloop
  endfacet
  facet normal 0 0 -1
    outer loop
      vertex -1.94188 0.478631 0
      vertex 4.75732 -8.02979 0
      vertex -1.94188 -12.4099 0
    endloop
  endfacet
  facet normal 0 0 -1
    outer loop
      vertex -1.94188 -12.4099 0
      vertex 2.02455 -17.9039 0
      vertex 1.08658 -17.6194 0
    endloop
  endfacet
  facet normal 0 0 -1
    outer loop
      vertex 4.75732 -8.02979 0
      vertex -1.94188 0.478631 0
      vertex 1.77091 0.929446 0
    endloop
  endfacet
  facet normal 0 0 -1
    outer loop
      vertex -1.34127 -15.4338 0
      vertex 1.08658 -17.6194 0
      vertex 0.222148 -17.1573 0
    endloop
  endfacet
  facet normal 0 0 -1
    outer loop
      vertex -1.34127 -15.4338 0
      vertex 0.222148 -17.1573 0
      vertex -0.535534 -16.5355 0
    endloop
  endfacet
  facet normal -0 0 -1
    outer loop
      vertex 1.77091 0.929446 0
      vertex -1.94188 0.478631 0
      vertex 1.13613 1.64597 0
    endloop
  endfacet
  facet normal 0 0 -1
    outer loop
      vertex -1.34127 -15.4338 0
      vertex -0.535534 -16.5355 0
      vertex -1.15735 -15.7779 0
    endloop
  endfacet
  facet normal 0 0 -1
    outer loop
      vertex 1.08658 -17.6194 0
      vertex -1.34127 -15.4338 0
      vertex -1.94188 -12.4099 0
    endloop
  endfacet
  facet normal 0 0 -1
    outer loop
      vertex -1.94188 -14.4786 0
      vertex -1.34127 -15.4338 0
      vertex -1.49702 -15.3262 0
    endloop
  endfacet
  facet normal -0 0 -1
    outer loop
      vertex 1.13613 1.64597 0
      vertex -1.94188 0.478631 0
      vertex 0.241073 1.98542 0
    endloop
  endfacet
  facet normal 0 0 -1
    outer loop
      vertex -1.34127 -15.4338 0
      vertex -1.94188 -14.4786 0
      vertex -1.94188 -13.5901 0
    endloop
  endfacet
  facet normal 0 0 -1
    outer loop
      vertex -1.34127 -15.4338 0
      vertex -1.94188 -13.5901 0
      vertex -1.94188 -12.4099 0
    endloop
  endfacet
  facet normal 0 0 -1
    outer loop
      vertex 0.241073 1.98542 0
      vertex -1.94188 0.478631 0
      vertex -0.709209 1.87003 0
    endloop
  endfacet
  facet normal 0 0 -1
    outer loop
      vertex -0.709209 1.87003 0
      vertex -1.94188 0.478631 0
      vertex -1.49702 1.32625 0
    endloop
  endfacet
  facet normal 0 0 -1
    outer loop
      vertex -1.94188 -13.5901 0
      vertex -2 -13 0
      vertex -1.94188 -12.4099 0
    endloop
  endfacet
  facet normal 0.354605 0.935016 -0
    outer loop
      vertex 1.13613 1.64597 0
      vertex 0.241073 1.98542 15
      vertex 1.13613 1.64597 15
    endloop
  endfacet
  facet normal 0.354605 0.935016 0
    outer loop
      vertex 0.241073 1.98542 15
      vertex 1.13613 1.64597 0
      vertex 0.241073 1.98542 0
    endloop
  endfacet
  facet normal -0.885456 -0.464723 0
    outer loop
      vertex -1.49702 -15.3262 0
      vertex -1.94188 -14.4786 15
      vertex -1.94188 -14.4786 0
    endloop
  endfacet
  facet normal -0.885456 -0.464723 0
    outer loop
      vertex -1.94188 -14.4786 15
      vertex -1.49702 -15.3262 0
      vertex -1.49702 -15.3262 15
    endloop
  endfacet
  facet normal -0.568066 -0.822983 0
    outer loop
      vertex -1.49702 -15.3262 0
      vertex -1.34127 -15.4338 15
      vertex -1.49702 -15.3262 15
    endloop
  endfacet
  facet normal -0.568066 -0.822983 -0
    outer loop
      vertex -1.34127 -15.4338 15
      vertex -1.49702 -15.3262 0
      vertex -1.34127 -15.4338 0
    endloop
  endfacet
  facet normal -0.995185 0.0980176 0
    outer loop
      vertex -2 -13 0
      vertex -1.94188 -12.4099 15
      vertex -1.94188 -12.4099 0
    endloop
  endfacet
  facet normal -0.995185 0.0980176 0
    outer loop
      vertex -1.94188 -12.4099 15
      vertex -2 -13 0
      vertex -2 -13 15
    endloop
  endfacet
  facet normal 0 -1 0
    outer loop
      vertex 117.823 -38 0
      vertex 121 -38 15
      vertex 117.823 -38 15
    endloop
  endfacet
  facet normal 0 -1 -0
    outer loop
      vertex 121 -38 15
      vertex 117.823 -38 0
      vertex 121 -38 0
    endloop
  endfacet
  facet normal 1 -0 0
    outer loop
      vertex 121 -38 15
      vertex 121 -10 0
      vertex 121 -10 15
    endloop
  endfacet
  facet normal 1 0 0
    outer loop
      vertex 121 -10 0
      vertex 121 -38 15
      vertex 121 -38 0
    endloop
  endfacet
  facet normal -0.209116 -0.977891 0
    outer loop
      vertex 2.02455 -17.9039 0
      vertex 94.0732 -37.588 15
      vertex 2.02455 -17.9039 15
    endloop
  endfacet
  facet normal -0.209116 -0.977891 -0
    outer loop
      vertex 94.0732 -37.588 15
      vertex 2.02455 -17.9039 0
      vertex 94.0732 -37.588 0
    endloop
  endfacet
  facet normal -0.471395 -0.881922 0
    outer loop
      vertex 0.222148 -17.1573 0
      vertex 1.08658 -17.6194 15
      vertex 0.222148 -17.1573 15
    endloop
  endfacet
  facet normal -0.471395 -0.881922 -0
    outer loop
      vertex 1.08658 -17.6194 15
      vertex 0.222148 -17.1573 0
      vertex 1.08658 -17.6194 0
    endloop
  endfacet
  facet normal 0.0169467 0.999856 -0
    outer loop
      vertex 121 -10 0
      vertex 4.75732 -8.02979 15
      vertex 121 -10 15
    endloop
  endfacet
  facet normal 0.0169467 0.999856 0
    outer loop
      vertex 4.75732 -8.02979 15
      vertex 121 -10 0
      vertex 4.75732 -8.02979 0
    endloop
  endfacet
  facet normal -0.634394 -0.77301 0
    outer loop
      vertex -0.535534 -16.5355 0
      vertex 0.222148 -17.1573 15
      vertex -0.535534 -16.5355 15
    endloop
  endfacet
  facet normal -0.634394 -0.77301 -0
    outer loop
      vertex 0.222148 -17.1573 15
      vertex -0.535534 -16.5355 0
      vertex 0.222148 -17.1573 0
    endloop
  endfacet
  facet normal -0.290286 -0.95694 0
    outer loop
      vertex 1.08658 -17.6194 0
      vertex 2.02455 -17.9039 15
      vertex 1.08658 -17.6194 15
    endloop
  endfacet
  facet normal -0.290286 -0.95694 -0
    outer loop
      vertex 2.02455 -17.9039 15
      vertex 1.08658 -17.6194 0
      vertex 2.02455 -17.9039 0
    endloop
  endfacet
  facet normal -0.881921 -0.471397 0
    outer loop
      vertex -1.15735 -15.7779 0
      vertex -1.34127 -15.4338 15
      vertex -1.34127 -15.4338 0
    endloop
  endfacet
  facet normal -0.881921 -0.471397 0
    outer loop
      vertex -1.34127 -15.4338 15
      vertex -1.15735 -15.7779 0
      vertex -1.15735 -15.7779 15
    endloop
  endfacet
  facet normal -0.995185 -0.0980176 0
    outer loop
      vertex -1.94188 -13.5901 0
      vertex -2 -13 15
      vertex -2 -13 0
    endloop
  endfacet
  facet normal -0.995185 -0.0980176 0
    outer loop
      vertex -2 -13 15
      vertex -1.94188 -13.5901 0
      vertex -1.94188 -13.5901 15
    endloop
  endfacet
  facet normal -0.773011 -0.634393 0
    outer loop
      vertex -0.535534 -16.5355 0
      vertex -1.15735 -15.7779 15
      vertex -1.15735 -15.7779 0
    endloop
  endfacet
  facet normal -0.773011 -0.634393 0
    outer loop
      vertex -1.15735 -15.7779 15
      vertex -0.535534 -16.5355 0
      vertex -0.535534 -16.5355 15
    endloop
  endfacet
  facet normal 0.951057 -0.309016 0
    outer loop
      vertex 1.5 -13 15
      vertex 1.78647 -12.1183 5
      vertex 1.78647 -12.1183 15
    endloop
  endfacet
  facet normal 0.951057 -0.309016 0
    outer loop
      vertex 1.78647 -12.1183 5
      vertex 1.5 -13 15
      vertex 1.5 -13 5
    endloop
  endfacet
  facet normal -1 0 0
    outer loop
      vertex 94 -34 5
      vertex 94 -14 15
      vertex 94 -14 5
    endloop
  endfacet
  facet normal -1 -0 0
    outer loop
      vertex 94 -14 15
      vertex 94 -34 5
      vertex 94 -34 15
    endloop
  endfacet
  facet normal 0 0 1
    outer loop
      vertex 94 -14 5
      vertex 92 -34 5
      vertex 94 -34 5
    endloop
  endfacet
  facet normal 0 0 1
    outer loop
      vertex 3.46352 -11.5734 5
      vertex 92 -34 5
      vertex 94 -14 5
    endloop
  endfacet
  facet normal 0 0 1
    outer loop
      vertex 2.53647 -14.4266 5
      vertex 3.46352 -11.5734 5
      vertex 2.53647 -11.5734 5
    endloop
  endfacet
  facet normal 0 0 1
    outer loop
      vertex 3.46352 -11.5734 5
      vertex 2.53647 -14.4266 5
      vertex 92 -34 5
    endloop
  endfacet
  facet normal -0 0 1
    outer loop
      vertex 1.78647 -12.1183 5
      vertex 2.53647 -14.4266 5
      vertex 2.53647 -11.5734 5
    endloop
  endfacet
  facet normal 0 0 1
    outer loop
      vertex 1.78647 -12.1183 5
      vertex 1.78647 -13.8817 5
      vertex 2.53647 -14.4266 5
    endloop
  endfacet
  facet normal 0 -0 1
    outer loop
      vertex 1.78647 -13.8817 5
      vertex 1.78647 -12.1183 5
      vertex 1.5 -13 5
    endloop
  endfacet
  facet normal 0.951057 0.309017 0
    outer loop
      vertex 1.78647 -13.8817 15
      vertex 1.5 -13 5
      vertex 1.5 -13 15
    endloop
  endfacet
  facet normal 0.951057 0.309017 0
    outer loop
      vertex 1.5 -13 5
      vertex 1.78647 -13.8817 15
      vertex 1.78647 -13.8817 5
    endloop
  endfacet
  facet normal 0.213731 0.976893 -0
    outer loop
      vertex 92 -34 5
      vertex 2.53647 -14.4266 15
      vertex 92 -34 15
    endloop
  endfacet
  facet normal 0.213731 0.976893 0
    outer loop
      vertex 2.53647 -14.4266 15
      vertex 92 -34 5
      vertex 2.53647 -14.4266 5
    endloop
  endfacet
  facet normal 0.587785 0.809017 -0
    outer loop
      vertex 2.53647 -14.4266 5
      vertex 1.78647 -13.8817 15
      vertex 2.53647 -14.4266 15
    endloop
  endfacet
  facet normal 0.587785 0.809017 0
    outer loop
      vertex 1.78647 -13.8817 15
      vertex 2.53647 -14.4266 5
      vertex 1.78647 -13.8817 5
    endloop
  endfacet
  facet normal -0.0267927 -0.999641 0
    outer loop
      vertex 3.46352 -11.5734 5
      vertex 94 -14 15
      vertex 3.46352 -11.5734 15
    endloop
  endfacet
  facet normal -0.0267927 -0.999641 -0
    outer loop
      vertex 94 -14 15
      vertex 3.46352 -11.5734 5
      vertex 94 -14 5
    endloop
  endfacet
  facet normal 0 -1 0
    outer loop
      vertex 2.53647 -11.5734 5
      vertex 3.46352 -11.5734 15
      vertex 2.53647 -11.5734 15
    endloop
  endfacet
  facet normal 0 -1 -0
    outer loop
      vertex 3.46352 -11.5734 15
      vertex 2.53647 -11.5734 5
      vertex 3.46352 -11.5734 5
    endloop
  endfacet
  facet normal 0 1 -0
    outer loop
      vertex 94 -34 5
      vertex 92 -34 15
      vertex 94 -34 15
    endloop
  endfacet
  facet normal 0 1 0
    outer loop
      vertex 92 -34 15
      vertex 94 -34 5
      vertex 92 -34 5
    endloop
  endfacet
  facet normal 0.587785 -0.809017 0
    outer loop
      vertex 1.78647 -12.1183 5
      vertex 2.53647 -11.5734 15
      vertex 1.78647 -12.1183 15
    endloop
  endfacet
  facet normal 0.587785 -0.809017 0
    outer loop
      vertex 2.53647 -11.5734 15
      vertex 1.78647 -12.1183 5
      vertex 2.53647 -11.5734 5
    endloop
  endfacet
  facet normal 1 -0 0
    outer loop
      vertex 96 -34.2007 15
      vertex 96 -14 0
      vertex 96 -14 15
    endloop
  endfacet
  facet normal 1 0 0
    outer loop
      vertex 96 -14 0
      vertex 96 -34.2007 15
      vertex 96 -34.2007 0
    endloop
  endfacet
  facet normal -1 0 0
    outer loop
      vertex 116.3 -34.339 0
      vertex 116.3 -14 15
      vertex 116.3 -14 0
    endloop
  endfacet
  facet normal -1 -0 0
    outer loop
      vertex 116.3 -14 15
      vertex 116.3 -34.339 0
      vertex 116.3 -34.339 15
    endloop
  endfacet
  facet normal 0 -1 0
    outer loop
      vertex 96 -14 0
      vertex 116.3 -14 15
      vertex 96 -14 15
    endloop
  endfacet
  facet normal 0 -1 -0
    outer loop
      vertex 116.3 -14 15
      vertex 96 -14 0
      vertex 116.3 -14 0
    endloop
  endfacet
  facet normal 0.986361 0.164598 0
    outer loop
      vertex 100 -37 15
      vertex 99.8374 -36.0259 0
      vertex 99.8374 -36.0259 15
    endloop
  endfacet
  facet normal 0.986361 0.164598 0
    outer loop
      vertex 99.8374 -36.0259 0
      vertex 100 -37 15
      vertex 100 -37 0
    endloop
  endfacet
  facet normal 0.0825768 0.996585 -0
    outer loop
      vertex 97.7365 -34.0918 0
      vertex 96.7523 -34.0102 15
      vertex 97.7365 -34.0918 15
    endloop
  endfacet
  facet normal 0.0825768 0.996585 0
    outer loop
      vertex 96.7523 -34.0102 15
      vertex 97.7365 -34.0918 0
      vertex 96.7523 -34.0102 0
    endloop
  endfacet
  facet normal 0.0825807 -0.996584 0
    outer loop
      vertex 96.7523 -39.9898 0
      vertex 97.7365 -39.9082 15
      vertex 96.7523 -39.9898 15
    endloop
  endfacet
  facet normal 0.0825807 -0.996584 0
    outer loop
      vertex 97.7365 -39.9082 15
      vertex 96.7523 -39.9898 0
      vertex 97.7365 -39.9082 0
    endloop
  endfacet
  facet normal 0.677281 0.735724 -0
    outer loop
      vertex 99.3674 -35.1574 0
      vertex 98.6408 -34.4885 15
      vertex 99.3674 -35.1574 15
    endloop
  endfacet
  facet normal 0.677281 0.735724 0
    outer loop
      vertex 98.6408 -34.4885 15
      vertex 99.3674 -35.1574 0
      vertex 98.6408 -34.4885 0
    endloop
  endfacet
  facet normal 0.879477 0.475942 0
    outer loop
      vertex 99.8374 -36.0259 15
      vertex 99.3674 -35.1574 0
      vertex 99.3674 -35.1574 15
    endloop
  endfacet
  facet normal 0.879477 0.475942 0
    outer loop
      vertex 99.3674 -35.1574 0
      vertex 99.8374 -36.0259 15
      vertex 99.8374 -36.0259 0
    endloop
  endfacet
  facet normal 0.401696 0.915773 -0
    outer loop
      vertex 98.6408 -34.4885 0
      vertex 97.7365 -34.0918 15
      vertex 98.6408 -34.4885 15
    endloop
  endfacet
  facet normal 0.401696 0.915773 0
    outer loop
      vertex 97.7365 -34.0918 15
      vertex 98.6408 -34.4885 0
      vertex 97.7365 -34.0918 0
    endloop
  endfacet
  facet normal -0.945816 -0.324704 0
    outer loop
      vertex 94.3616 -38.4278 0
      vertex 94.0732 -37.588 15
      vertex 94.0732 -37.588 0
    endloop
  endfacet
  facet normal -0.945816 -0.324704 0
    outer loop
      vertex 94.0732 -37.588 15
      vertex 94.3616 -38.4278 0
      vertex 94.3616 -38.4278 15
    endloop
  endfacet
  facet normal -0.245486 0.9694 0
    outer loop
      vertex 96.7523 -34.0102 0
      vertex 96 -34.2007 15
      vertex 96.7523 -34.0102 15
    endloop
  endfacet
  facet normal -0.245486 0.9694 0
    outer loop
      vertex 96 -34.2007 15
      vertex 96.7523 -34.0102 0
      vertex 96 -34.2007 0
    endloop
  endfacet
  facet normal 0.986361 -0.164598 0
    outer loop
      vertex 99.8374 -37.9741 15
      vertex 100 -37 0
      vertex 100 -37 15
    endloop
  endfacet
  facet normal 0.986361 -0.164598 0
    outer loop
      vertex 100 -37 0
      vertex 99.8374 -37.9741 15
      vertex 99.8374 -37.9741 0
    endloop
  endfacet
  facet normal 0.677281 -0.735724 0
    outer loop
      vertex 98.6408 -39.5115 0
      vertex 99.3674 -38.8426 15
      vertex 98.6408 -39.5115 15
    endloop
  endfacet
  facet normal 0.677281 -0.735724 0
    outer loop
      vertex 99.3674 -38.8426 15
      vertex 98.6408 -39.5115 0
      vertex 99.3674 -38.8426 0
    endloop
  endfacet
  facet normal 0.401696 -0.915773 0
    outer loop
      vertex 97.7365 -39.9082 0
      vertex 98.6408 -39.5115 15
      vertex 97.7365 -39.9082 15
    endloop
  endfacet
  facet normal 0.401696 -0.915773 0
    outer loop
      vertex 98.6408 -39.5115 15
      vertex 97.7365 -39.9082 0
      vertex 98.6408 -39.5115 0
    endloop
  endfacet
  facet normal 0.879476 -0.475943 0
    outer loop
      vertex 99.3674 -38.8426 15
      vertex 99.8374 -37.9741 0
      vertex 99.8374 -37.9741 15
    endloop
  endfacet
  facet normal 0.879476 -0.475943 0
    outer loop
      vertex 99.8374 -37.9741 0
      vertex 99.3674 -38.8426 15
      vertex 99.3674 -38.8426 0
    endloop
  endfacet
  facet normal -0.546946 -0.837168 0
    outer loop
      vertex 94.9682 -39.2072 0
      vertex 95.7949 -39.7473 15
      vertex 94.9682 -39.2072 15
    endloop
  endfacet
  facet normal -0.546946 -0.837168 -0
    outer loop
      vertex 95.7949 -39.7473 15
      vertex 94.9682 -39.2072 0
      vertex 95.7949 -39.7473 0
    endloop
  endfacet
  facet normal -0.789142 -0.614211 0
    outer loop
      vertex 94.9682 -39.2072 0
      vertex 94.3616 -38.4278 15
      vertex 94.3616 -38.4278 0
    endloop
  endfacet
  facet normal -0.789142 -0.614211 0
    outer loop
      vertex 94.3616 -38.4278 15
      vertex 94.9682 -39.2072 0
      vertex 94.9682 -39.2072 15
    endloop
  endfacet
  facet normal -0.245488 -0.9694 0
    outer loop
      vertex 95.7949 -39.7473 0
      vertex 96.7523 -39.9898 15
      vertex 95.7949 -39.7473 15
    endloop
  endfacet
  facet normal -0.245488 -0.9694 -0
    outer loop
      vertex 96.7523 -39.9898 15
      vertex 95.7949 -39.7473 0
      vertex 96.7523 -39.9898 0
    endloop
  endfacet
  facet normal -1 0 0
    outer loop
      vertex 112.041 -37.4938 0
      vertex 112.041 -36.5062 15
      vertex 112.041 -36.5062 0
    endloop
  endfacet
  facet normal -1 -0 0
    outer loop
      vertex 112.041 -36.5062 15
      vertex 112.041 -37.4938 0
      vertex 112.041 -37.4938 15
    endloop
  endfacet
  facet normal 0.401699 0.915772 -0
    outer loop
      vertex 116.3 -34.339 0
      vertex 115.736 -34.0918 15
      vertex 116.3 -34.339 15
    endloop
  endfacet
  facet normal 0.401699 0.915772 0
    outer loop
      vertex 115.736 -34.0918 15
      vertex 116.3 -34.339 0
      vertex 115.736 -34.0918 0
    endloop
  endfacet
  facet normal 0.401696 -0.915773 0
    outer loop
      vertex 115.736 -39.9082 0
      vertex 116.641 -39.5115 15
      vertex 115.736 -39.9082 15
    endloop
  endfacet
  facet normal 0.401696 -0.915773 0
    outer loop
      vertex 116.641 -39.5115 15
      vertex 115.736 -39.9082 0
      vertex 116.641 -39.5115 0
    endloop
  endfacet
  facet normal 0.0825807 -0.996584 0
    outer loop
      vertex 114.752 -39.9898 0
      vertex 115.736 -39.9082 15
      vertex 114.752 -39.9898 15
    endloop
  endfacet
  facet normal 0.0825807 -0.996584 0
    outer loop
      vertex 115.736 -39.9082 15
      vertex 114.752 -39.9898 0
      vertex 115.736 -39.9082 0
    endloop
  endfacet
  facet normal 0.0825768 0.996585 -0
    outer loop
      vertex 115.736 -34.0918 0
      vertex 114.752 -34.0102 15
      vertex 115.736 -34.0918 15
    endloop
  endfacet
  facet normal 0.0825768 0.996585 0
    outer loop
      vertex 114.752 -34.0102 15
      vertex 115.736 -34.0918 0
      vertex 114.752 -34.0102 0
    endloop
  endfacet
  facet normal -0.546949 0.837166 0
    outer loop
      vertex 113.795 -34.2527 0
      vertex 112.968 -34.7928 15
      vertex 113.795 -34.2527 15
    endloop
  endfacet
  facet normal -0.546949 0.837166 0
    outer loop
      vertex 112.968 -34.7928 15
      vertex 113.795 -34.2527 0
      vertex 112.968 -34.7928 0
    endloop
  endfacet
  facet normal -0.789142 0.614211 0
    outer loop
      vertex 112.362 -35.5722 0
      vertex 112.968 -34.7928 15
      vertex 112.968 -34.7928 0
    endloop
  endfacet
  facet normal -0.789142 0.614211 0
    outer loop
      vertex 112.968 -34.7928 15
      vertex 112.362 -35.5722 0
      vertex 112.362 -35.5722 15
    endloop
  endfacet
  facet normal -0.945817 -0.3247 0
    outer loop
      vertex 112.362 -38.4278 0
      vertex 112.041 -37.4938 15
      vertex 112.041 -37.4938 0
    endloop
  endfacet
  facet normal -0.945817 -0.3247 0
    outer loop
      vertex 112.041 -37.4938 15
      vertex 112.362 -38.4278 0
      vertex 112.362 -38.4278 15
    endloop
  endfacet
  facet normal -0.945817 0.3247 0
    outer loop
      vertex 112.041 -36.5062 0
      vertex 112.362 -35.5722 15
      vertex 112.362 -35.5722 0
    endloop
  endfacet
  facet normal -0.945817 0.3247 0
    outer loop
      vertex 112.362 -35.5722 15
      vertex 112.041 -36.5062 0
      vertex 112.041 -36.5062 15
    endloop
  endfacet
  facet normal -0.245485 0.9694 0
    outer loop
      vertex 114.752 -34.0102 0
      vertex 113.795 -34.2527 15
      vertex 114.752 -34.0102 15
    endloop
  endfacet
  facet normal -0.245485 0.9694 0
    outer loop
      vertex 113.795 -34.2527 15
      vertex 114.752 -34.0102 0
      vertex 113.795 -34.2527 0
    endloop
  endfacet
  facet normal 0.879475 -0.475945 0
    outer loop
      vertex 117.367 -38.8426 15
      vertex 117.823 -38 0
      vertex 117.823 -38 15
    endloop
  endfacet
  facet normal 0.879475 -0.475945 0
    outer loop
      vertex 117.823 -38 0
      vertex 117.367 -38.8426 15
      vertex 117.367 -38.8426 0
    endloop
  endfacet
  facet normal 0.677281 -0.735724 0
    outer loop
      vertex 116.641 -39.5115 0
      vertex 117.367 -38.8426 15
      vertex 116.641 -39.5115 15
    endloop
  endfacet
  facet normal 0.677281 -0.735724 0
    outer loop
      vertex 117.367 -38.8426 15
      vertex 116.641 -39.5115 0
      vertex 117.367 -38.8426 0
    endloop
  endfacet
  facet normal -0.546946 -0.837168 0
    outer loop
      vertex 112.968 -39.2072 0
      vertex 113.795 -39.7473 15
      vertex 112.968 -39.2072 15
    endloop
  endfacet
  facet normal -0.546946 -0.837168 -0
    outer loop
      vertex 113.795 -39.7473 15
      vertex 112.968 -39.2072 0
      vertex 113.795 -39.7473 0
    endloop
  endfacet
  facet normal -0.789142 -0.614211 0
    outer loop
      vertex 112.968 -39.2072 0
      vertex 112.362 -38.4278 15
      vertex 112.362 -38.4278 0
    endloop
  endfacet
  facet normal -0.789142 -0.614211 0
    outer loop
      vertex 112.362 -38.4278 15
      vertex 112.968 -39.2072 0
      vertex 112.968 -39.2072 15
    endloop
  endfacet
  facet normal -0.245488 -0.9694 0
    outer loop
      vertex 113.795 -39.7473 0
      vertex 114.752 -39.9898 15
      vertex 113.795 -39.7473 15
    endloop
  endfacet
  facet normal -0.245488 -0.9694 -0
    outer loop
      vertex 114.752 -39.9898 15
      vertex 113.795 -39.7473 0
      vertex 114.752 -39.9898 0
    endloop
  endfacet
endsolid OpenSCAD_Model
